<?xml version="1.0" encoding="utf-8"?>
<svg viewBox="0 0 62 62" fill="none" xmlns="http://www.w3.org/2000/svg">
  <defs>
    <clipPath id="clip0_29_159">
      <rect width="62" height="62" fill="white"/>
    </clipPath>
  </defs>
  <g clip-path="url(#clip0_29_159)" transform="matrix(1, 0, 0, 1, 0, -8.881784197001252e-16)">
    <path d="M34.1989 2L3.06545 2.00005C2.51319 2.00006 2.08177 2.44671 2.0814 2.99898C2.0727 15.9266 1.90247 30.9402 2.08174 35.6546C2.26566 40.4909 4.90954 60.7414 36.8247 59.9832C68.74 59.2249 67.7301 2.00001 34.1989 2Z" stroke-width="3" style="stroke: rgb(255, 255, 255);"/>
    <path d="M33.2394 10.4364H11.4793C10.927 10.4364 10.4942 10.8836 10.4937 11.4359C10.4852 20.5352 10.3685 30.9915 10.4942 34.2989C10.6244 37.7281 12.4968 52.0866 35.0991 51.5489C57.7014 51.0113 56.9862 10.4364 33.2394 10.4364Z" stroke-width="2" style="stroke: rgb(255, 255, 255);"/>
  </g>
</svg>